<?xml version="1.0" encoding="UTF-8"?><svg id="Layer_2" xmlns="http://www.w3.org/2000/svg" viewBox="0 0 973.06765 446.90145"><defs><style>.cls-1{fill:#2c2c2c;}</style></defs><g id="Layer_1-2"><g><path class="cls-1" d="M0,68.26511c.49251-2.1727,1.01196-4.33972,1.47345-6.51897C7.3984,33.76732,25.61617,16.80257,51.75067,8.32113c37.34215-12.11866,74.92875-10.30973,112.25254,.96126,.91858,.27739,1.7727,.76776,2.80741,1.22537V63.7839c-1.60012-.86687-2.81727-1.52439-4.03272-2.185-24.39556-13.25932-50.12005-19.23693-77.59258-12.59358-6.162,1.49008-12.38416,5.01786-17.21981,9.18185-8.14699,7.01538-8.98077,18.95121-1.9055,27.08509,4.77323,5.48741,10.78741,10.36181,17.14335,13.90567,10.12924,5.64773,21.1861,9.60881,31.51809,14.92769,11.75938,6.05371,23.73503,11.97357,34.5811,19.45035,20.28651,13.98455,29.46359,34.10453,29.01155,58.67965-.63716,34.63885-17.83086,59.00607-51.06644,69.00241-39.0689,11.75085-78.28446,10.22031-116.93036-2.86471-9.34113-3.16274-9.2181-3.52527-9.2181-13.16729,0-14.23345,.00002-28.46691,.00003-42.70036,0-1.55561,0-3.11122,0-5.72195,2.67832,1.97909,4.53489,3.40344,6.44398,4.75371,25.67382,18.15883,53.89317,25.36667,84.99004,19.08837,4.94121-.99762,9.92147-3.21997,14.16369-5.98007,11.36098-7.39177,13.8729-21.68407,5.13095-32.02966-4.69132-5.5519-10.68972-10.57948-17.08819-13.99192-12.51926-6.67683-25.727-12.06752-38.65986-17.9685-14.98731-6.83838-28.98318-15.09951-39.93958-27.7218C7.7486,113.26624,2.85178,102.01412,.95462,89.40141c-.18652-1.24002-.63026-2.44144-.95462-3.66078v-17.47552Z"/><path class="cls-1" d="M882.5778,446.90145c8.2495-21.73952,16.48642-43.48381,24.75384-65.21654,4.1354-10.8708,8.42706-21.6837,12.42708-32.60353,1.10928-3.02835,2.53638-4.23274,5.92646-4.12617,7.93198,.24932,7.94237,.03798,10.8083,7.45995,12.16159,31.4949,24.32064,62.99074,36.48051,94.48629h-13.60803c-3.22373-8.8987-6.33777-17.84072-9.81678-26.63869-.41344-1.04532-2.81468-1.82606-4.30549-1.84451-11.93283-.14793-23.86952,.00569-35.80223-.14607-2.91986-.03712-4.26396,.96378-5.19906,3.70378-2.8533,8.36163-5.99753,16.6243-9.02857,24.92549h-12.63603Zm44.70112-87.88595c-5.92747,16.36342-11.65625,32.17822-17.52819,48.38828h35.20185c-5.94426-16.27457-11.71279-32.06809-17.67366-48.38828Z"/><path class="cls-1" d="M583.20119,446.90145c5.26005-14.05514,10.45768-28.13397,15.79557-42.15957,7.01035-18.42022,14.39618-36.70398,21.03165-55.25652,1.82393-5.09969,5.04066-4.21594,8.63002-4.48597,3.80335-.28618,5.89306,.67885,7.41691,4.7113,11.93437,31.58159,24.19332,63.04079,36.35901,94.53509,.34789,.90058,.77367,1.77112,1.16303,2.65568h-13.60803c-3.2143-8.78152-6.32068-17.6058-9.77525-26.29198-.44673-1.1233-2.68457-2.1546-4.10763-2.1746-12.1451-.17075-24.29465-.01452-36.44034-.16076-2.7935-.03363-3.9824,1.05785-4.83901,3.54809-2.88848,8.39686-5.97754,16.72492-8.98989,25.07926h-12.63603Zm62.3352-39.37003c-6.04665-16.52045-11.83037-32.32254-17.74853-48.49183-5.89436,16.28263-11.64747,32.17516-17.55418,48.49183h35.3027Z"/><path class="cls-1" d="M789.26561,446.90145c-3.35621-9.73834-6.60147-19.51653-10.09087-29.20702-8.093-22.47498-16.30726-44.90633-24.45976-67.35998-.54046-1.48865-.97438-3.0159-1.69738-5.27258,3.93446,0,7.42694-.24177,10.85054,.13745,1.1253,.12462,2.60306,1.6738,3.02267,2.88231,9.73972,28.04918,19.35503,56.14152,29.00356,84.22231,.14398,.41897,.41855,.79315,.48292,.91223,10.08986-28.2833,20.1907-56.70968,30.47408-85.07001,.48256-1.33105,2.48619-2.70889,3.96614-2.95433,2.82619-.46872,5.78556-.13611,9.65512-.13611-12.65554,34.2805-25.1273,68.06312-37.59899,101.84574h-13.60803Z"/><path class="cls-1" d="M707.61744,446.90145v-91.18h-29.16528v-10.36836h69.81293v10.22122h-28.98362v91.32714h-11.66402Z"/><path class="cls-1" d="M525.85307,446.90145c.04835-31.86786,.09682-63.73572,.14458-95.60358,.00285-1.90004,.00036-3.80008,.00036-5.96875h11.69719v90.77327h40.77039c.30191,3.84683,.57475,7.32295,.84759,10.79907h-53.46011Z"/><path class="cls-1" d="M845.64173,446.90145v-9.83072c3.37495-.22541,6.37236-.42561,9.45815-.63171v-80.97771c-3.11244-.15081-5.97137-.28935-9.22049-.4468v-9.71514h30.84445v9.63091c-3.09879,.19235-6.08711,.37782-9.34911,.58027v80.90803c3.10805,.22097,6.10141,.43376,9.37106,.66622v9.81665h-31.10406Z"/><path class="cls-1" d="M738.47073,52.16346h-90.75434v57.81649h84.43437v47.51696h-84.45329v59.40304h96.73989v47.16051h-155.15166V5.08871h149.18504V52.16346Z"/><path class="cls-1" d="M972.91828,202.01676c0,17.26485-.08585,33.758,.07582,50.24871,.03055,3.11409-1.9007,3.66838-3.9748,4.54419-23.91704,10.09921-49.13178,12.22016-74.68765,11.89069-19.26604-.24834-38.05954-3.39114-55.71581-11.4076-28.69275-13.02725-49.04327-34.39498-59.29823-64.0396-13.98344-40.4228-13.25972-81.08674,5.39982-119.87169,19.53579-40.60642,53.07508-63.94615,97.5008-70.90399,28.64078-4.48564,57.10678-2.42779,85.09651,5.52958,4.21484,1.19826,5.85266,2.87694,5.74824,7.57578-.36646,16.48075-.14221,32.97459-.14221,50.30437-1.97634-.9958-3.45949-1.73798-4.9382-2.48898-24.25413-12.31826-49.85829-15.96455-76.38551-10.40304-31.64079,6.63357-54.58375,32.93061-58.59545,65.84636-2.28032,18.70945-1.78904,37.20942,5.71431,54.81654,11.45258,26.87413,32.24206,41.37673,61.12661,44.14695,24.64035,2.36319,47.97391-2.41947,69.79827-14.22436,.82208-.44463,1.68777-.80869,3.27748-1.5639Z"/><path class="cls-1" d="M421.22869,52.24459h-73.65202V5.06655h205.95111V52.03474h-73.74015v212.11958h-58.55894V52.24459Z"/><path class="cls-1" d="M316.32284,145.76733v39.24909h-98.319v-39.24909h98.319Z"/></g></g></svg>